<?xml version="1.0" encoding="UTF-8"?>
<svg id="Layer_1" data-name="Layer 1" xmlns="http://www.w3.org/2000/svg" viewBox="0 0 1000 1000">
  <defs>
    <style>
      .cls-1 {
        fill: #06c;
      }

      .cls-1, .cls-2, .cls-3, .cls-4 {
        stroke-width: 0px;
      }

      .cls-3 {
        fill: #fc8917;
      }

      .cls-4 {
        fill: #fff;
      }
    </style>
  </defs>
  <rect class="cls-1" y="0" width="1000" height="1000" rx="200" ry="200"/>
  <g>
    <path class="cls-3" d="m757.99,450.64c.09.94.16,1.93.23,2.92,1,.63,2,1.29,3.04,1.98.01.02.03.02.05.03l.03.02c11.66,7.74,25.05,17.98,39.06,30.73l36.04-19.26c.43-.22.66-.7.57-1.18l-9.14-53.23c-.09-.48-.46-.85-.94-.92l-78.52-11.91c4.87,15.97,8.07,32.91,9.59,50.82Z"/>
    <path class="cls-3" d="m740.76,577.01c-36.53,82.86-93.55,120.59-135.48,137.72-.19.08-.4.16-.6.24-.02,6.81-.11,13.37-.27,19.68l.18-.07,69.57,51.58c.38.29.92.3,1.32.02l44.2-31.02c.39-.28.57-.78.44-1.24l-25.35-84.56,3.91-4.64c4.37-5.13,8.55-10.46,12.41-15.84l3.67-5.08,88.44,6c.47.02.93-.25,1.11-.7l20.45-50.01c.1-.26.1-.54.01-.79-23.2-2.04-51.94-7.84-84.03-21.29Z"/>
    <path class="cls-4" d="m847.46,561.4c-3.87-6.69-8.95-14.22-14.84-21.96-.08-.12-.16-.22-.24-.34-6.9-9.03-14.97-18.36-23.61-26.92-.12-.13-.26-.29-.42-.43-2.27-2.23-4.58-4.41-6.92-6.51-1.19-1.08-2.38-2.14-3.6-3.17-3.55-3.07-7.17-5.95-10.82-8.59-3.47-2.52-6.97-4.81-10.46-6.84-.69-.44-1.38-.89-2.06-1.33l.96.66c-12.04-7.23-23.3-13.26-34.16-17.72-.2-.07-.38-.16-.6-.22-2.85-1.16-5.67-2.22-8.48-3.17-2.87-.94-5.7-1.79-8.55-2.51h-.01c-1.72-.44-3.44-.82-5.15-1.15v-.02c-.12,0-.25-.03-.35-.06-4.77-.92-9.5-1.48-14.24-1.63-.98-.03-1.97-.05-2.96-.05-.55,0-1.08.01-1.61.01-1.57.02-3.15.1-4.71.22-2.65.18-5.31.52-7.98.99-.91.16-1.83.33-2.74.53-4.72.97-9.49,2.38-14.35,4.23.89-1.3,4.15-6.09,9.09-11.35.9-.84,1.86-1.69,2.89-2.53.82-.67,1.68-1.34,2.59-1.99,2.13-1.54,4.51-2.99,7.14-4.28-.02-.08-.03-.18-.07-.25-2.95-10.69-6.84-21.25-11.9-31.55-3.36-6.38-6.14-10.48-6.34-10.78-1.52,1.79-3.1,3.42-4.71,4.88-.82.78-1.68,1.5-2.52,2.19-.31.26-.62.51-.93.74-12.4,9.74-25.75,12-25.75,12,7.35-10.78,11.14-21.78,12.63-32.35.37-2.59.61-5.16.71-7.69.12-2.9.07-5.77-.09-8.57-.21-3.59-.65-7.08-1.25-10.44-.05-.22-.08-.46-.12-.7-.33-1.77-.7-3.49-1.1-5.16-4.6-19.15-13.65-32.55-14.1-33.23.01-.01.01,0,.02.01.09.03.18.1.27.16.03.02.07.06.11.07.2.15.43.28.64.43,1.37.9,2.74,1.83,4.09,2.74.65.44,1.27.88,1.91,1.34,3.55,2.53,8.23,6.04,13.55,10.41.02.03.06.07.09.09,13.01,10.77,29.78,26.85,42.88,46.96.15.19.27.38.37.58,7.1,11.35,12.89,23.68,17.06,37.15.03.08.06.17.07.27,1.63,5.25,2.99,10.69,4.08,16.29.02.03.03.08.02.11,3.02.53,5.97,1.17,8.8,1.91,3.42.88,6.66,1.91,9.67,3.02,0-.08-.02-.14-.03-.21.22.07.42.13.63.21-7.94-75.64-59.01-127.16-123.31-159.31-.13-.08-.28-.15-.42-.21-.14-.07-.26-.13-.39-.2-.12-.06-.24-.12-.36-.18-1.05-.54-1.79-.9-2.16-1.09-.07-.03-.15-.06-.2-.09-51.27-24.92-110.47-37.76-162.74-40.9.02.02.06.03.07.06h.02c.12.06.21.13.31.21.02.01.03.03.06.03,2.05,1.14,8.94,5.62,13.81,16.93,9.85,2.36,18.87,5.05,27.09,7.95.03,0,.07.02.1.03,25.21,8.93,43.15,20.02,55.88,31.01,7.3,6.3,12.9,12.57,17.17,18.4.15.22.33.46.46.67,2.26,3.14,4.14,6.13,5.7,8.92,6.38,11.38,7.43,19.35,7.43,19.35,2.58-5.12,4.76-9.46,6.61-13.11.94-1.88,1.81-3.59,2.59-5.14.18-.37.37-.75.54-1.09,3.05-6.06,4.78-9.51,5.76-11.47.89-1.78,1.16-2.33,1.24-2.47.02,0,.03.01.06.03.03.01.05.02.06.03,0,0,.01,0,.02.02.01.01.03.02.05.03,0,0,.01,0,.01.01.49.45.96.89,1.44,1.34,1.79,1.68,3.52,3.43,5.18,5.25,6.75,7.39,12.41,15.83,16.61,24.26.9,1.82,1.74,3.63,2.5,5.43,1.47,3.49,2.68,6.93,3.59,10.27,1.18,4.36,1.87,8.54,1.98,12.35.51,16.08-2.05,24.09-8.49,35.65-.33.6-.69,1.2-1.05,1.81-.27.45-.54.9-.82,1.35-.07.12-.15.25-.24.37-.08.15-.18.29-.28.44-.16.27-.34.54-.52.81-.05.09-.11.19-.18.28,0,.02-.01.03-.03.06-.14.21-.27.42-.42.63-.1.15-.2.3-.3.46-.19.28-.38.56-.58.85-.05.06-.09.12-.13.19-.88,1.28-1.8,2.56-2.75,3.85-.28.38-.57.78-.88,1.16-.01.02-.02.03-.03.06-.36.47-.73.96-1.11,1.43-.06.09-.14.18-.2.27-.09.12-.19.24-.29.36-4,5.11-8.35,9.99-12.34,14.06l-7.82,6.53c-.1.08-.19.17-.29.25l-3.41,2.85c.38-.96,8.2-20.89,14.99-38.75,12.66-33.29-2.63-54.67-2.63-54.67-15.46,29.9-42.92,72.09-43.79,73.41,18.26-67.63-9.29-99.32-21.56-109.57-2.85-2.38-4.86-3.61-5.31-3.87l-.03-.02c-.06-.01-.07-.03-.07-.03l-1.14-.06-.58-.03-1.57-.1c-1.6-.09-3.23-.18-4.87-.26l-12.63-.71c-4.27-.25-8.6-.48-12.85-.72l-44.24-2.45s-.03.02-.05.03c-16.18,10.06-35.01,15.84-54.22,16.69-.55.02-1.11.05-1.66.06-.65.03-1.28.03-1.93.06-1.02.01-2.08.01-3.13,0-32.14-.52-64.61-14.94-86.87-46.24-3.44-4.82-6.62-10.06-9.54-15.71l-15.39-7.6-8.84-4.36c-.13.03-.29.05-.44.07-.39.07-.79.15-1.18.22-3.08.57-6.16,1.17-9.25,1.81-2.36.47-4.71.97-7.07,1.5-48.33,10.49-97.62,27.89-144.86,55.18,0,0,.02.03.04.09.01.02.03.06.06.1,9.5,20.54,42.09,68.9,98.33,97.98,2.16,1.11,4.34,2.2,6.57,3.25,6.74,3.19,13.79,6.11,21.15,8.66,18.28,6.32,38.53,10.46,60.75,11.27.9.03,1.77.06,2.67.08.89.03,1.79.03,2.7.05,1.8.03,3.61.02,5.44-.01,1.09,0,2.2-.02,3.31-.06.21,0,.43-.01.63-.01-.33.12-.67.26-1.02.4-10.78,4.35-29.78,14.4-70.82,15.46,4.23,1.89,10.37,3,17.94,3.25.53.02,1.06.02,1.6.03,1.07.02,2.17.02,3.31,0,13.21-.19,29.92-2.74,47.99-8.12,7.77-2.32,15.79-5.15,23.9-8.55,39.16-16.38,80.26-45.82,104.2-92.44-.21.04-.44.08-.65.12-2.66.51-5.35,1.11-8.07,1.89-3.04.85-6.12,1.87-9.24,3.08t-.03.01h-.02c.1-.16.21-.31.34-.47h0c5.71-8.56,14.36-15.78,24.24-20.85,9.1-4.67,19.26-7.5,29.18-7.88.64-.02,1.28-.05,1.92-.05,9.84-.03,19.35,2.41,27.26,7.98,15.18,8.39,31.52,36.19,37.58,57.82l-.12-.13s-.03-.06-.09-.09c-.22-.21-.44-.44-.64-.64-3-3.06-4.48-4.63-11.48-11.46-.03-.03-.05-.07-.08-.09-.81-.7-1.63-1.42-2.53-2.16.03.11.04.25.08.35,11.1,51.76-1.43,83.19-1.43,83.19-.03-.48-.07-.96-.09-1.44-3.06-49.25-7.59-77.49-18.08-95.83-.3-.17-.6-.35-.9-.51-1.2-.69-2.42-1.35-3.68-2.01,33.86,98.16-26.23,183.91-160.38,191.78,5.57,2.47,12.56,3.51,20.09,3.65,1.16.01,2.34,0,3.51-.01,23.45-.43,50.65-8.74,56.45-10.57.02,0,.02-.02.03-.02.62-.19.98-.31,1.07-.35-23.6,17.11-42.88,24.41-58.26,26.38-.21.03-.43.05-.65.08,10.66-.73,24.96-1.55,40.73-3.8,35.08-4.99,77.33-16.93,102.07-49.98h.01c.03-.06.09-.12.13-.17v-.02c.12-.18.25-.35.37-.54v-.02h0s.02-.01.02-.01c.06-.08.1-.17.17-.25l.6.38-.57-.42c1.86-2.69,4.54-7.1,6.59-10.32.31-.48.6-.96.88-1.38-2.65,12.22-1.74,22.1-18.07,49.42,4.24.67,8.43,1.02,12.52,1.09.45.02.92.02,1.38.02,44.02.17,78.21-30.96,85.41-36.85.35-.28.63-.53.84-.69-1.02,2.77-2.16,5.62-3.37,8.42-1.82,4.23-3.86,8.38-6.18,12.03.38.38,10.59,10.77,19.14,26.9,15.68,29.56,25.75,78.39-40.57,120.11-6.67,4.19-14.11,8.32-22.4,12.35.1-.08.39-.33.87-.73,1.46-1.24,4.63-3.99,8.71-7.95,1.99-1.93,4.21-4.15,6.54-6.62,3.43-3.6,7.13-7.74,10.81-12.29-.23.04-.46.09-.7.12-5.62,1.09-11.38,1.56-17.22,1.56h-.28c-36.3-.1-75.84-18.14-110.44-18.04-.75,0-1.48.02-2.23.03-12.18.33-23.7,3.01-34.24,9.68-.45.29-.9.58-1.35.89,1.28.2,2.63.51,4.06.89,8.54,2.31,19.53,7.77,31.35,14.75,0,.01.01.01.01.01,1.96,1.16,3.92,2.36,5.91,3.6,14.69,9.11,30.16,20.08,43.37,29.91,18.41,13.73,32.44,25.23,33.89,26.43,11.72,18.1,24.51,55.81,33.7,86.07.24.78.46,1.55.7,2.32,2.33,7.7,4.4,14.84,6.14,20.99.67,2.38,1.29,4.61,1.87,6.66,1.27,4.6,2.27,8.3,2.95,10.83.04.19.11.4.16.6,6.12-8.12,25.5-38.42,30.55-102.44.14-1.61.26-3.24.36-4.9.29-4.43.52-9.02.66-13.76.2-6.35.26-13,.16-19.93-.19.07-.38.14-.6.19-3.36,1.07-6.2,1.95-8.64,2.66-14.96,4.46-14.85,3.4-26.7,5.21.09-.05.21-.09.3-.15,26.99-12.01,51.65-26.13,73.45-42.06.09-.07.19-.12.28-.2,1.41-1.02,2.82-2.07,4.19-3.1.04-.02.11-.07.16-.12,41.38-31.28,71.97-69.24,88.15-111.8-.18-.06-.35-.14-.51-.22-2.98-1.46-5.13-2.51-7.35-3.67-1.9-1-3.89-2.08-6.53-3.56-.02.05-.03.11-.06.16-1.38,3.72-2.92,7.44-4.66,11.2-9.68,22.51-18.6,37.32-33.48,59.43-.01.01-.01.02-.02.02.38-.99,3.97-11.24,8.02-27.6,3.54-14.33,7.42-33.33,9.78-54.9-2.41-1.37-4.76-2.76-7.04-4.15-8.73-5.3-16.59-10.71-23.61-16.04-2.33-1.77-4.57-3.52-6.7-5.27-22.4-18.17-35.17-34.75-40.38-42.26-1.36-1.82-2.36-3.29-2.71-4.17-.03-.03-.03-.06-.03-.07,0-.02-.02-.02-.02-.02-.01-.05-.03-.07,0-.09h-.01s0-.01.01-.01h0s.02.01.02.01c.03.02.17.11.37.3,0,0,.01,0,.03.01,3.34,2.51,25.9,19.27,57.27,38.96,4.54,2.84,9.27,5.76,14.15,8.7,1.66.97,3.34,1.95,5.03,2.91,1.71.99,3.43,1.97,5.16,2.95v.02c1.57.89,3.16,1.78,4.78,2.65l8.61,4.51,17.77,9.29,3.25,1.71c1.15.54,2.29,1.1,3.44,1.65.17.08.35.17.52.25,24.48,11.69,49.57,21.4,72.81,26.53,8.16,1.81,16.1,3.06,23.72,3.62,1.91.13,3.79.24,5.66.29.55.02,1.1.05,1.65.05h.01c.51.01,1.02.01,1.54,0,.61,0,1.2,0,1.78-.01,2.34-.03,4.62-.15,6.86-.31,4.43-.39,8.94-1.12,11.95-2.5.01,0,.04-.01.04-.01v-.02h.01c-.87-4.48-3.76-10.98-8.15-18.57Z"/>
    <path class="cls-3" d="m662.5,284.82c30.44,20.94,53.76,46.44,69.84,76.31l36.88-65.3c.24-.42.18-.94-.15-1.3l-36.28-40.03c-.33-.36-.84-.47-1.29-.27l-69.1,30.47s.06.08.08.11h.01Z"/>
    <path class="cls-4" d="m573.36,242.77s-.02.01-.03.01c.35.11.72.22,1.08.31.06.03.12.06.17.06.11.03.22.07.31.09.07.03.12.04.19.07.03.01.07.02.1.02.58.19,1.16.36,1.73.53.6.18,1.18.36,1.74.53,11.08,3.52,20.77,7.21,30.55,11.42,3.24,1.42,6.49,2.87,9.79,4.41.91.43,1.81.84,2.75,1.3.17.08.35.16.53.25.15-.58.31-1.18.49-1.78,2.29-8.03,6.53-16.68,11.28-24.77,1.34-2.31,2.72-4.57,4.12-6.75,6.74-10.55,13.66-19.45,17.08-23.68-.2.01-.42.03-.64.06-.31.01-.62.05-.96.08-.97.09-1.97.25-3,.42h-.02c-.49.09-1.01.19-1.52.3h-.01c-.25.03-.51.09-.76.16h-.01c-3.51.75-7.3,1.86-11.27,3.24-1.45.51-2.92,1.03-4.41,1.61-4.04,1.54-8.21,3.32-12.4,5.22-19.38,8.82-39.29,20.54-49.41,26.14.84.26,1.68.51,2.52.75Z"/>
    <path class="cls-3" d="m553.8,237.2c9.33-5.7,35.64-21.23,65.72-34.35l-1.05-18.28c-.02-.48-.36-.9-.82-1.02l-52.17-14.06c-.46-.12-.97.07-1.24.47l-40,60.51c9.3,1.81,18.84,3.95,28.48,6.44.35.1.72.19,1.07.29Z"/>
    <path class="cls-2" d="m609.17,478.4h.01s0,0,0,0h-.01Z"/>
    <path class="cls-4" d="m345.97,531.24h.01c64.98-7.41,97.98-29.83,114.41-48.11,16.4-18.22,19.75-35.76,20.39-40.63l-10.67-2.27-6.33-1.35s0,.07-.02.12c-.29,3.13,1.24,12.17,3.16,19.91l.66,2.64-.64-.19-18.49-5.4v.18c.16,4.09.65,13.08,2.16,21.87l.46,2.8-.64-.26-22.19-9.29c-.02.08-.03.15-.06.24-.97,4.8.21,15.93,1.35,22.65l.51,3.15-.65-.37-22.88-12.36c-.02.09-.06.17-.06.29-.74,3.97-1.1,13.93-1.01,22.64l.03,3.27-.6-.47-1.97-1.56c-3.44-2.7-15.92-10.9-19.76-13.39-.05.09-.11.19-.16.28-1.74,3.24-4.06,12.55-5.45,20.74l-.47,2.68-.52-.44-19.16-15.96c-.05.11-.1.24-.16.37-1.83,4.24-3.72,13.54-4.6,19.29l-.44,2.8-.52-.46-1.61-1.39c-4.06-3.52-15.41-11.69-19.26-14.45-.06.1-.12.2-.15.31-2.38,5.16-.96,16.25-.1,20.49l.03.19s.09,1.24.21,2.79v.06c5.25-.37,10.3-.84,15.17-1.41Z"/>
    <path class="cls-3" d="m409.23,220.32c.24,0,.52-.02.83-.02.16,0,.33-.01.49-.01.42-.02.9-.02,1.42-.03.21-.02.46-.02.69-.02.4,0,.82-.01,1.29-.01,2.7-.04,6.15-.04,10.32,0,.6.01,1.23.03,1.87.03.24,0,.49.01.74.01.79.02,1.61.03,2.43.06.47.01.93.01,1.41.03.81.01,1.64.03,2.5.07.05-.01.11-.01.15,0,.85.03,1.7.06,2.58.09,1.7.04,3.49.11,5.32.2.08,0,.16.02.25,0,3.42.16,7.03.37,10.83.6,4.42.28,9.09.63,13.98,1.06l-35.89-49.39c-.28-.39-.79-.55-1.25-.4l-51.47,16.35c-.47.15-.79.57-.79,1.06l-.27,21.03c10.67,2.4,21.55,5.44,32.23,9.31h.36Z"/>
    <path class="cls-4" d="m274.64,241.22c8.34,3.89,21.83,9.54,26.58,12.03.02.02.08.05.11.06,1.23.65,2.05,1.14,2.26,1.35l.1.18c.29.94.66,1.93,1.07,2.9.26.6.51,1.19.78,1.77.73,1.62,1.52,3.18,2.4,4.72,1.21,2.16,2.59,4.28,4.19,6.47,3.32,4.52,7.59,9.3,13.43,15.25.06.03.09.07.12.09,3.28,2.67,6.81,5.23,10.55,7.64,16.13,10.39,36.04,17.91,56.55,18.5.63.01,1.23.03,1.86.03.55,0,1.1,0,1.63-.02,16.24-.16,32.72-4.8,47.91-15.89,0,0,.01-.01.05-.01.05-.02.13-.03.28-.02.67-.03,2.32.08,4.69.27.09,0,.18.01.27.01,4.05.35,10.08.96,16.9,1.68,8.47.89,18.14,1.95,26.74,2.9,1.51.16,2.98.31,4.4.46,9.15,1,16.44,1.8,18.66,1.97.31.03.53.06.62.06h.07l-17.77-8.48-39.36-18.79-3.24-1.54h-.09c-.96-10.6-8.02-18.45-16.34-24.22-.14.03-.29.07-.45.09-3.58.73-9.2,2.08-12.18,3.87,4.51,7.39,5.04,16.7,1.41,25.55-3.13,7.67-9.1,14.51-16.83,19.25-6.84,4.17-14.35,6.38-21.79,6.38-8.86,0-16.51-2.42-23.19-7.58-2.42-1.9-4.55-4.15-6.48-6.54l-3.92-4.88-5.71-7.13s15.74-.66,24.82-10.96c.06-.07.12-.13.18-.2,11.62-13.18,27.96-26.84,45-26.82.69,0,1.36.03,2.06.08.23.02.46.03.72.06-16.14-7.32-32.15-12.5-47.23-16.14-4.3-1.05-8.52-1.96-12.65-2.76-1.51-.29-3.01-.56-4.49-.83-18.08-3.2-34.13-4.3-46.49-4.5-2.53-.06-4.91-.07-7.12-.03-2.65.03-5.08.1-7.23.16-.97.03-1.88.08-2.73.11-5.64.3-8.79.69-8.79.69,0,0-12.89,11.86-20.68,18.78l-.06.06c2.04.97,5.03,2.36,8.41,3.96h.01Z"/>
    <path class="cls-4" d="m386.68,288.33c-3.17-.55-5.94-1.92-7.89-4.08l-3.07,1.89c2.17,3.52,5.81,5.76,10.18,6.65,1.37.27,2.83.42,4.31.42,4.22,0,8.82-1.12,13.19-3.36.71-.38,1.41-.75,2.07-1.18,11.32-6.95,16.36-19.32,11.26-27.64l-2.89,1.78c2.27,5.97-.53,13.61-6.86,19.13-.09-4.17-3.51-7.51-7.7-7.51-1.6,0-3.07.48-4.32,1.3-2.06,1.41-3.41,3.74-3.41,6.4,0,2.46,1.15,4.63,2.92,6.04-1.53.31-3.05.46-4.51.46-1.11,0-2.21-.09-3.27-.28Z"/>
    <path class="cls-4" d="m473.6,370.16c-.85-2.15-3.94-5.91-9.67-5.75-.42,0-.85.03-1.29.07-1.77.22-17.22,2.75-17.37,25.05l-.02,2.49-.6-.3-1.63-.79c-.07-.03-4.13-1.99-9.14-1.92-2.05.03-4.27.4-6.42,1.41-5.26,2.41-9.03,7.92-11.2,16.35l-.38,1.42-.56-.1-.88-.18c-.23-.05-1.9-.35-4.4-.33-.22,0-.44,0-.66.01-.1,0-.21,0-.31.02-7.07.29-19.22,3.42-24.59,20.21l-.16.52-.45.31c-20.72,14.15-42.47,23.52-62.76,29.73-7.42,2.27-14.65,4.12-21.56,5.61-9.74,2.1-18.84,3.52-26.95,4.46,2.77,5.22,11.28,19.39,23.78,23.79,1.33.46,2.7.82,4.1,1.05.19.03.39.07.6.09l1.34-22.52.02-.55,2.46,2.44c.09.09,5.84,5.71,12.18,9.99,2.72,1.84,5.57,3.43,8.11,4.22.2.07.38.13.57.18l3.27-23.09.05-.37,2.08,1.42c.13.11,13.64,9.33,22.19,12.12.18.08.37.12.56.19l4.58-24.78.07-.35,1.97,1.32c.14.07,10.98,7.25,23.45,9.81.19.03.39.09.58.12l3.16-28.2.02-.25,1.96.88c5.87,2.61,20.75,9.06,26.98,10.93.18.07.37.12.54.18.94-3.83,3.28-15.03,2.3-29.12l-.18-2.56-.02-.37,2.54,1.46c.06.03,4.39,2.52,12.07,6.36,6.78,3.41,10.24,4.7,12.02,5.14.19.06.37.09.53.12,4.53-7.69,4-20.58,3.72-24.46-.03-.45-.07-.8-.1-1.06l-.12-1.18-.26-2.24-.06-.43,2.52,1.63.99.51v.12c3.02,1.91,15.09,9.32,23.5,13.31.18.09.38.19.57.28.25-4.9.71-17.11-.36-28.37-.55-6.06-1.55-11.83-3.26-16.05Z"/>
    <path class="cls-3" d="m426.44,693.52c-14.44-5.6-26.83-7.91-36.86-8.52-.39-.03-.76-.06-1.16-.07-.39-.02-.79-.02-1.16-.04-.39-.01-.79-.03-1.16-.03-.71-.01-1.39-.03-2.05-.03-.38,0-.73,0-1.08.02-.46,0-.9.01-1.32.03-.42.01-.82.01-1.24.03-.39.02-.78.03-1.18.07-11.93.69-18.39,3.67-18.39,3.67-.02-.08-.03-.15-.06-.22-.35.15-.54.22-.54.22-6.71-34.79-46.07-50.41-46.07-50.41,8.93-4.05,17.71-7.22,26.34-9.63-5.58-7.05-10.66-14.42-15.24-22.06-37.78,8.61-68.46,13.19-69.03,13.27l-1.65.24v-.08s-.6.08-.6.08l-.16-1.64c-.94-10.71,24.2-46.34,46.58-75.69-2.54-12.27-3.96-24.82-4.21-37.51-.79-.14-1.46-.25-1.88-.34-20.49-4.62-37.48-30.95-43.14-40.65-.49-.01-1-.01-1.47-.03-11.12-.44-21.93-2.86-32.04-7.21-8.88-3.82-24.96-11.47-43.45-23.63l-6.47,53.28c-.06.48.2.96.64,1.16l78.04,36.86.78,6.11c1.07,8.55,2.56,17.01,4.46,25.17l1.42,6.15-61.54,59.81c-.35.34-.44.87-.24,1.3l23.52,48.63c.21.43.67.69,1.17.62l87-11.38,3.96,4.64c5.25,6.15,10.91,12.17,16.81,17.9l4.59,4.4-19.45,83.62c-.11.47.09.96.51,1.2l46.06,28.21c.42.25.94.21,1.32-.1l67.8-57.24,5.76,1.66c1.78.54,3.54,1.02,5.11,1.45,5.27,1.43,10.86,2.73,16.63,3.89l5.96,1.19,32.77,82.59c.17.43.58.71,1.05.71h.06l45.13-2.56c-17.34-58.05-35.16-88.3-35.16-88.3-28.87-27.36-54.36-42.62-75.47-50.82Z"/>
  </g>
</svg>